#!OML:ASF H:\Dans Jumps\Project 1\Capture day 1\Session 1\subject.ASF
:FULLY-SPECIFIED
:DEGREES
421
root 0.554211 16.9443 -2.66014 8.23734 0.0382203 -1.84652
lowerback 4.70583 -0.859588 -0.777508
upperback 6.15155 -1.2199 2.24425
thorax 3.78088 -0.697596 2.77106
lowerneck -13.0211 0.777614 -0.721847
upperneck 33.0942 1.66354 -1.06271
head 13.285 0.487194 -0.0440772
rclavicle 1.43125e-014 5.1684e-015
rhumerus -18.1445 -14.0486 -83.627
rradius 23.0473
rwrist 32.5221
rhand -21.3138 -25.266
rfingers 7.12502
rthumb 5.07134 -55.1853
lclavicle 1.43125e-014 5.1684e-015
lhumerus -13.3194 -8.36944 91.4231
lradius 18.2736
lwrist 7.14447
lhand -27.5246 -6.03713
lfingers 7.12502
lthumb -0.926773 23.9406
rfemur -28.9165 -4.21176 20.5662
rtibia 44.6386
rfoot -20.4389 -9.05373
rtoes 5.21809
lfemur -30.7736 7.61098 -17.7456
ltibia 42.6652
lfoot -19.3588 -0.349398
ltoes -1.18208
422
root 0.553493 16.9456 -2.65919 8.24661 0.0318613 -1.85198
lowerback 4.6971 -0.856778 -0.77637
upperback 6.15023 -1.21618 2.24447
thorax 3.78415 -0.695711 2.77047
lowerneck -13.0041 0.778684 -0.726839
upperneck 33.1065 1.66796 -1.06709
head 13.2867 0.487897 -0.0443551
rclavicle -9.93923e-017 -5.36719e-015
rhumerus -18.1051 -14.0117 -83.6438
rradius 23.057
rwrist 32.5043
rhand -21.3356 -25.2787
rfingers 7.12502
rthumb 5.05028 -55.1986
lclavicle -9.93923e-017 -5.36719e-015
lhumerus -13.3119 -8.44285 91.4334
lradius 18.3023
lwrist 7.17686
lhand -27.5343 -6.05828
lfingers 7.12502
lthumb -0.936088 23.9194
rfemur -28.9073 -4.19965 20.5742
rtibia 44.6096
rfoot -20.4338 -9.05263
rtoes 5.21556
lfemur -30.7651 7.61837 -17.7376
ltibia 42.6398
lfoot -19.3502 -0.356795
ltoes -1.14123
423
root 0.552717 16.9468 -2.65828 8.25814 0.0285081 -1.85633
lowerback 4.687 -0.855443 -0.775453
upperback 6.14765 -1.21442 2.24513
thorax 3.78701 -0.69481 2.77047
lowerneck -12.9819 0.780112 -0.732703
upperneck 33.1138 1.67314 -1.07201
head 13.285 0.488827 -0.0446014
rclavicle -3.18055e-015 5.56597e-015
rhumerus -18.0623 -13.988 -83.6599
rradius 23.0619
rwrist 32.5047
rhand -21.3236 -25.3129
rfingers 7.12502
rthumb 5.0619 -55.2324
lclavicle -3.18055e-015 5.56597e-015
lhumerus -13.3064 -8.51011 91.443
lradius 18.3257
lwrist 7.20814
lhand -27.5507 -6.10383
lfingers 7.12502
lthumb -0.952 23.8738
rfemur -28.9018 -4.18892 20.5815
rtibia 44.583
rfoot -20.4307 -9.05182
rtoes 5.21908
lfemur -30.7618 7.62469 -17.731
ltibia 42.6183
lfoot -19.3419 -0.365112
ltoes -1.10234
424
root 0.551964 16.948 -2.65737 8.27073 0.0274213 -1.85966
lowerback 4.67632 -0.855231 -0.773376
upperback 6.14493 -1.21412 2.24531
thorax 3.79007 -0.694574 2.76932
lowerneck -12.9592 0.782462 -0.738235
upperneck 33.1187 1.67936 -1.07648
head 13.2822 0.490335 -0.0445744
rclavicle 9.14409e-015 2.18663e-015
rhumerus -18.0193 -13.97 -83.6754
rradius 23.0659
rwrist 32.5119
rhand -21.2972 -25.3555
rfingers 7.12502
rthumb 5.08736 -55.2745
lclavicle 9.14409e-015 2.18663e-015
lhumerus -13.3032 -8.56418 91.4497
lradius 18.3474
lwrist 7.22783
lhand -27.5692 -6.16416
lfingers 7.12502
lthumb -0.969885 23.8134
rfemur -28.8987 -4.18194 20.5879
rtibia 44.5587
rfoot -20.4286 -9.04901
rtoes 5.2295
lfemur -30.7623 7.63132 -17.7261
ltibia 42.6007
lfoot -19.3341 -0.375643
ltoes -1.0698
425
root 0.551176 16.9491 -2.65647 8.28366 0.0271422 -1.86261
lowerback 4.66573 -0.855745 -0.77076
upperback 6.1425 -1.21476 2.24523
thorax 3.79343 -0.69479 2.76761
lowerneck -12.9408 0.785287 -0.740356
upperneck 33.1252 1.68646 -1.08403
head 13.2811 0.492201 -0.0462048
rclavicle 1.27222e-014 1.98785e-015
rhumerus -17.9743 -13.9627 -83.6901
rradius 23.0653
rwrist 32.5284
rhand -21.2597 -25.3974
rfingers 7.12502
rthumb 5.12357 -55.3154
lclavicle 1.27222e-014 1.98785e-015
lhumerus -13.2999 -8.60396 91.4532
lradius 18.3656
lwrist 7.24128
lhand -27.5909 -6.22336
lfingers 7.12502
lthumb -0.990784 23.7541
rfemur -28.8974 -4.17504 20.5942
rtibia 44.5362
rfoot -20.4267 -9.04686
rtoes 5.24172
lfemur -30.7651 7.63684 -17.7214
ltibia 42.5853
lfoot -19.3252 -0.387923
ltoes -1.04021
426
root 0.550385 16.9501 -2.65555 8.29547 0.0300188 -1.8659
lowerback 4.65558 -0.857441 -0.766491
upperback 6.14143 -1.21698 2.24541
thorax 3.79802 -0.695747 2.76527
lowerneck -12.927 0.787889 -0.740125
upperneck 33.1326 1.69357 -1.09425
head 13.2815 0.493984 -0.0492717
rclavicle 7.25564e-015 -7.15625e-015
rhumerus -17.9282 -13.962 -83.704
rradius 23.0645
rwrist 32.5446
rhand -21.2126 -25.4317
rfingers 7.12502
rthumb 5.16904 -55.3486
lclavicle 7.25564e-015 -7.15625e-015
lhumerus -13.2945 -8.63029 91.4541
lradius 18.3784
lwrist 7.24672
lhand -27.61 -6.26678
lfingers 7.12502
lthumb -1.00922 23.7106
rfemur -28.8951 -4.17114 20.6011
rtibia 44.5146
rfoot -20.4252 -9.04388
rtoes 5.2599
lfemur -30.768 7.64015 -17.7162
ltibia 42.5715
lfoot -19.3171 -0.401335
ltoes -1.01086
427
root 0.549539 16.951 -2.65458 8.30572 0.035779 -1.87213
lowerback 4.64717 -0.860089 -0.759307
upperback 6.14156 -1.22045 2.24712
thorax 3.80295 -0.697265 2.7629
lowerneck -12.9189 0.789689 -0.739338
upperneck 33.1392 1.69907 -1.10338
head 13.2827 0.495246 -0.0522245
rclavicle 1.2921e-015 5.36719e-015
rhumerus -17.8804 -13.9709 -83.7165
rradius 23.0605
rwrist 32.5632
rhand -21.1847 -25.4441
rfingers 7.12502
rthumb 5.19599 -55.3604
lclavicle 1.2921e-015 5.36719e-015
lhumerus -13.2871 -8.64028 91.4525
lradius 18.3873
lwrist 7.23989
lhand -27.6261 -6.29483
lfingers 7.12502
lthumb -1.02477 23.6825
rfemur -28.8909 -4.16744 20.6115
rtibia 44.4926
rfoot -20.4217 -9.04364
rtoes 5.27486
lfemur -30.7708 7.6424 -17.7072
ltibia 42.5601
lfoot -19.3107 -0.416569
ltoes -0.979054
428
root 0.5487 16.9518 -2.65351 8.31468 0.0430323 -1.88109
lowerback 4.63912 -0.862571 -0.748579
upperback 6.14297 -1.22369 2.25004
thorax 3.80893 -0.698568 2.7598
lowerneck -12.9153 0.790058 -0.738278
upperneck 33.1475 1.70271 -1.11309
head 13.2857 0.495629 -0.0557018
rclavicle -6.65929e-015 2.98177e-015
rhumerus -17.8338 -13.9782 -83.7277
rradius 23.0604
rwrist 32.5689
rhand -21.181 -25.4322
rfingers 7.12502
rthumb 5.19961 -55.3484
lclavicle -6.65929e-015 2.98177e-015
lhumerus -13.2775 -8.64098 91.4502
lradius 18.3901
lwrist 7.22808
lhand -27.6407 -6.30978
lfingers 7.12502
lthumb -1.03885 23.6674
rfemur -28.8841 -4.16457 20.6249
rtibia 44.4695
rfoot -20.4169 -9.04504
rtoes 5.28246
lfemur -30.7724 7.64379 -17.695
ltibia 42.5503
lfoot -19.3067 -0.430828
ltoes -0.9457
429
root 0.547852 16.9525 -2.65241 8.32332 0.0534638 -1.89665
lowerback 4.63221 -0.865189 -0.730053
upperback 6.14379 -1.22701 2.2552
thorax 3.81355 -0.699623 2.75467
lowerneck -12.9094 0.788729 -0.737928
upperneck 33.1549 1.70355 -1.12142
head 13.2877 0.494919 -0.0589368
rclavicle -9.24349e-015 1.43125e-014
rhumerus -17.7931 -13.9832 -83.738
rradius 23.0689
rwrist 32.5608
rhand -21.1945 -25.4037
rfingers 7.12502
rthumb 5.18653 -55.3202
lclavicle -9.24349e-015 1.43125e-014
lhumerus -13.2675 -8.62702 91.447
lradius 18.3875
lwrist 7.20453
lhand -27.6499 -6.31881
lfingers 7.12502
lthumb -1.04775 23.6584
rfemur -28.8759 -4.16171 20.6456
rtibia 44.4456
rfoot -20.4113 -9.05089
rtoes 5.27461
lfemur -30.7749 7.64469 -17.6754
ltibia 42.5424
lfoot -19.3047 -0.44541
ltoes -0.908952
430
root 0.547024 16.9532 -2.65127 8.3319 0.0654464 -1.91402
lowerback 4.6255 -0.868382 -0.709285
upperback 6.14406 -1.23109 2.26208
thorax 3.8175 -0.700998 2.75006
lowerneck -12.8994 0.787167 -0.740948
upperneck 33.1587 1.70404 -1.12734
head 13.2872 0.494009 -0.0607097
rclavicle -6.85807e-015 3.43897e-014
rhumerus -17.7569 -13.9834 -83.7461
rradius 23.081
rwrist 32.5402
rhand -21.2248 -25.3619
rfingers 7.12502
rthumb 5.15726 -55.2791
lclavicle -6.85807e-015 3.43897e-014
lhumerus -13.2577 -8.60285 91.4443
lradius 18.3794
lwrist 7.17457
lhand -27.6551 -6.33218
lfingers 7.12502
lthumb -1.05276 23.645
rfemur -28.8674 -4.16 20.668
rtibia 44.422
rfoot -20.4043 -9.05804
rtoes 5.26137
lfemur -30.7772 7.64541 -17.654
ltibia 42.5351
lfoot -19.3032 -0.461131
ltoes -0.865385
431
root 0.546158 16.9539 -2.65007 8.3388 0.0774761 -1.92659
lowerback 4.61997 -0.872216 -0.694206
upperback 6.14422 -1.23612 2.26894
thorax 3.82086 -0.70308 2.74867
lowerneck -12.8868 0.785025 -0.748366
upperneck 33.1642 1.7043 -1.1316
head 13.2868 0.492666 -0.0611054
rclavicle 3.37934e-015 1.72943e-014
rhumerus -17.7232 -13.9827 -83.753
rradius 23.0956
rwrist 32.517
rhand -21.2392 -25.3297
rfingers 7.12502
rthumb 5.14341 -55.2473
lclavicle 3.37934e-015 1.72943e-014
lhumerus -13.2504 -8.56978 91.442
lradius 18.3681
lwrist 7.13933
lhand -27.6569 -6.3374
lfingers 7.12502
lthumb -1.0545 23.6397
rfemur -28.8575 -4.15846 20.685
rtibia 44.4002
rfoot -20.3978 -9.0672
rtoes 5.24077
lfemur -30.777 7.64585 -17.6376
ltibia 42.5279
lfoot -19.3028 -0.47551
ltoes -0.822236
